<svg width="190.780029" height="24.550049" viewBox="0 0 190.78 24.55" fill="none" xmlns="http://www.w3.org/2000/svg" xmlns:xlink="http://www.w3.org/1999/xlink">
	<desc>
			Created with Pixso.
	</desc>
	<defs/>
	<path id="Vector" d="M55.3406 6.97778L55.3406 17.7937L57.77 17.7937C58.39 17.7834 59.0018 17.6353 59.5693 17.358C60.1368 17.0807 60.6486 16.6798 61.074 16.1792C61.9474 15.1528 62.4252 13.7885 62.4058 12.3768C62.4243 11.6757 62.3179 10.9773 62.0925 10.3219C61.8671 9.6665 61.5273 9.06702 61.0927 8.55786C60.6653 8.05652 60.1501 7.65759 59.5786 7.38562C59.0072 7.11365 58.3917 6.97437 57.77 6.97644L55.3418 6.97644L55.3406 6.97778ZM57.77 3.58655C62.298 3.58655 65.7234 7.48108 65.7234 12.3768C65.7234 17.2725 62.298 21.1891 57.77 21.1891L52.4119 21.1891C52.3608 21.1884 52.3104 21.1764 52.2634 21.1541C52.2164 21.1317 52.174 21.0992 52.1383 21.0587C52.1027 21.0181 52.0746 20.9701 52.0555 20.9174C52.0366 20.8647 52.0272 20.8085 52.0278 20.7517L52.0278 4.04175C52.0278 3.79968 52.2001 3.60303 52.4119 3.60303L57.77 3.58655ZM77.3948 18.1705C79.4513 18.1774 81.3083 16.7733 82.1 14.6129C82.4877 13.5573 82.5913 12.3995 82.3983 11.2799C82.2052 10.1603 81.7238 9.12683 81.0122 8.30481C80.3131 7.49634 79.4095 6.94238 78.4208 6.71594C77.432 6.48962 76.4048 6.60144 75.4745 7.03687C73.5741 7.9281 72.3328 10.0363 72.3291 12.3768C72.3291 15.5673 74.5924 18.1554 77.3948 18.1705ZM77.396 3.18774C82.1619 3.18774 85.8053 7.3573 85.8053 12.3768C85.8053 17.3962 82.1619 21.5658 77.3948 21.5658C72.6289 21.5658 69.0164 17.4169 69.0164 12.3768C69.0164 7.33667 72.661 3.18774 77.396 3.18774ZM97.3824 18.1705C100.186 18.1622 102.454 15.5714 102.452 12.3809C102.448 9.18774 100.175 6.60242 97.3726 6.60095C94.5677 6.60095 92.2932 9.18494 92.2896 12.3768C92.2896 13.9143 92.8259 15.3884 93.7811 16.4749C94.2487 17.0103 94.8081 17.4362 95.4265 17.7274C96.0448 18.0187 96.7108 18.1693 97.3824 18.1705ZM97.3812 3.18774C102.132 3.18774 105.776 7.33667 105.776 12.3768C105.776 17.4169 102.117 21.5658 97.3812 21.5658C92.6464 21.5658 88.9719 17.4169 88.9719 12.3768C88.9719 7.33667 92.6154 3.18774 97.3812 3.18774ZM116.888 6.97778L113.463 6.97778L113.463 11.6328L116.888 11.6328C117.159 11.6461 117.429 11.5978 117.682 11.4906C117.935 11.3834 118.166 11.2198 118.36 11.0099C118.756 10.5835 118.982 9.99219 118.987 9.37061C118.997 9.0553 118.949 8.74097 118.847 8.44653C118.745 8.15198 118.59 7.88354 118.392 7.6571C118.198 7.43433 117.964 7.25916 117.705 7.14282C117.446 7.02649 117.167 6.97168 116.888 6.98193L116.888 6.97778ZM110.149 4.04175C110.149 3.79968 110.322 3.60303 110.534 3.60303L116.984 3.60303C120.059 3.60303 122.284 6.16785 122.284 9.38855C122.307 11.5668 121.235 13.5677 119.525 14.5427L122.499 20.5289C122.54 20.5978 122.563 20.6779 122.566 20.7604C122.569 20.8429 122.551 20.9247 122.514 20.9965C122.478 21.0673 122.425 21.125 122.36 21.1631C122.296 21.2012 122.223 21.2178 122.15 21.2111L119.539 21.2111C119.467 21.2122 119.396 21.1906 119.334 21.1487C119.272 21.1068 119.222 21.0465 119.19 20.9745L116.323 15.0502L113.45 15.0502L113.45 20.7379C113.451 20.7948 113.442 20.8512 113.423 20.9041C113.404 20.9569 113.376 21.005 113.34 21.0458C113.305 21.0865 113.262 21.1191 113.215 21.1416C113.168 21.1641 113.118 21.1759 113.066 21.1766L110.552 21.1766C110.5 21.1759 110.45 21.1641 110.403 21.1416C110.356 21.1191 110.313 21.0865 110.277 21.0458C110.242 21.005 110.214 20.9569 110.195 20.9041C110.176 20.8512 110.167 20.7948 110.167 20.7379L110.15 4.04309L110.149 4.04175ZM130.921 7.0603L130.921 17.8776L133.349 17.8776C133.969 17.8683 134.581 17.7211 135.148 17.4447C135.716 17.1683 136.228 16.7684 136.654 16.2686C137.528 15.2434 138.007 13.8801 137.989 12.469C138.008 11.7668 137.903 11.0674 137.678 10.4108C137.453 9.75415 137.114 9.15344 136.679 8.64319C136.251 8.14099 135.735 7.74146 135.162 7.46948C134.59 7.19751 133.973 7.05872 133.35 7.06165L130.921 7.0603ZM133.349 3.66492C137.877 3.66492 141.302 7.5636 141.302 12.469C141.302 17.3743 137.877 21.2729 133.349 21.2729L128.007 21.2729C127.956 21.2722 127.905 21.2603 127.858 21.2378C127.811 21.2153 127.769 21.1829 127.733 21.1421C127.697 21.1013 127.669 21.0531 127.65 21.0004C127.631 20.9475 127.622 20.891 127.623 20.8342L127.623 4.12561C127.623 3.8822 127.795 3.68555 128.007 3.68555L133.349 3.66492ZM151.407 7.96655L149.527 13.7506L153.282 13.7506L151.407 7.96655ZM148.425 17.0194L147.194 20.87C147.17 20.9606 147.119 21.0394 147.049 21.0942C146.98 21.149 146.896 21.1765 146.81 21.1725L144.142 21.1725C144.074 21.1796 144.006 21.1661 143.944 21.1338C143.882 21.1013 143.829 21.051 143.791 20.9883C143.752 20.9247 143.729 20.8511 143.723 20.7744C143.717 20.6979 143.729 20.6208 143.758 20.5509L149.524 3.85742C149.55 3.76941 149.603 3.6936 149.672 3.64148C149.741 3.58936 149.824 3.56372 149.908 3.56873L152.893 3.56873C152.977 3.56348 153.06 3.58887 153.13 3.64099C153.199 3.69312 153.252 3.76917 153.279 3.85742L159.044 20.5509C159.073 20.621 159.085 20.698 159.078 20.7747C159.073 20.8513 159.049 20.9248 159.01 20.9883C158.971 21.0508 158.918 21.1008 158.857 21.1329C158.795 21.1652 158.727 21.1783 158.659 21.1711L155.992 21.1711C155.906 21.1752 155.823 21.1477 155.753 21.0929C155.683 21.0381 155.632 20.9592 155.608 20.8687L154.377 17.0181L148.425 17.0181L148.425 17.0194ZM162.138 8.34204C162.138 5.57788 164.236 3.18774 167.55 3.18774C169.335 3.14355 171.063 3.88452 172.357 5.24915C172.396 5.29053 172.428 5.34045 172.449 5.39575C172.471 5.45105 172.482 5.51074 172.482 5.57092C172.482 5.63123 172.471 5.6908 172.449 5.74622C172.428 5.80151 172.396 5.85132 172.357 5.89282L170.879 7.5636C170.844 7.60425 170.801 7.63647 170.754 7.65857C170.708 7.68054 170.657 7.69189 170.606 7.69189C170.556 7.69189 170.505 7.68054 170.458 7.65857C170.412 7.63647 170.369 7.60425 170.334 7.5636C169.638 6.83936 168.723 6.42896 167.769 6.4126C166.444 6.4126 165.464 7.28857 165.464 8.29932C165.464 11.5668 173.297 9.6814 173.297 15.9688C173.293 19.1552 171.179 21.5658 167.44 21.5658C166.402 21.5776 165.372 21.3575 164.412 20.9186C163.452 20.4796 162.581 19.8308 161.851 19.0107C161.812 18.9694 161.781 18.9194 161.759 18.8641C161.738 18.8088 161.727 18.7491 161.727 18.689C161.727 18.6287 161.738 18.5691 161.759 18.5138C161.781 18.4584 161.812 18.4086 161.851 18.3672L163.281 16.7389C163.317 16.6963 163.36 16.6624 163.408 16.6392C163.456 16.616 163.507 16.604 163.56 16.604C163.612 16.604 163.664 16.616 163.712 16.6392C163.76 16.6624 163.803 16.6963 163.839 16.7389C164.738 17.7289 165.95 18.2913 167.217 18.3066C168.873 18.3066 169.965 17.2999 169.965 16.0389C169.965 12.7701 162.135 14.6569 162.135 8.36816L162.138 8.34204ZM187.502 4.01978L187.502 10.6262L180.872 10.6262L180.872 4.01978C180.872 3.96301 180.863 3.90674 180.844 3.85413C180.825 3.80139 180.797 3.75342 180.761 3.71277C180.725 3.67224 180.683 3.63977 180.636 3.61743C180.589 3.59509 180.539 3.58313 180.488 3.5824L177.973 3.5824C177.922 3.58313 177.871 3.59509 177.824 3.61743C177.777 3.63977 177.735 3.67224 177.699 3.71277C177.663 3.75342 177.635 3.80139 177.616 3.85413C177.597 3.90674 177.588 3.96301 177.589 4.01978L177.589 20.7104C177.589 20.9525 177.762 21.1492 177.973 21.1492L180.488 21.1492C180.698 21.1492 180.872 20.9525 180.872 20.7104L180.872 13.9995L187.497 13.9995L187.497 20.7104C187.497 20.9525 187.67 21.1492 187.881 21.1492L190.396 21.1492C190.608 21.1492 190.78 20.9525 190.78 20.7104L190.78 4.01978C190.781 3.96301 190.771 3.90674 190.752 3.85413C190.733 3.80139 190.705 3.75342 190.67 3.71277C190.634 3.67224 190.591 3.63977 190.544 3.61743C190.497 3.59509 190.447 3.58313 190.396 3.5824L187.881 3.5824C187.779 3.58533 187.682 3.63281 187.611 3.71472C187.54 3.79651 187.501 3.90613 187.502 4.01978ZM37.9111 5.8103C36.1667 2.22095 32.7537 -0.0136719 29.0421 0.00012207L0.959717 0.00012207C0.77002 0.000976562 0.584839 0.0637207 0.427002 0.180542C0.269287 0.297485 0.146118 0.463257 0.0726318 0.657349C0.000244141 0.85022 -0.0185547 1.06274 0.0185547 1.26758C0.0556641 1.47229 0.146973 1.66016 0.280762 1.80701L6.39832 8.54553C6.93835 9.14233 7.67432 9.47656 8.43994 9.47656L28.2368 9.47656C29.6479 9.45996 30.8013 10.7004 30.8162 12.2448C30.8311 13.7891 29.7 15.0543 28.2888 15.0695L14.6404 15.0695C14.4506 15.0695 14.265 15.1316 14.1068 15.248C13.9486 15.3645 13.8248 15.53 13.7509 15.724C13.6779 15.9171 13.6584 16.13 13.6953 16.3353C13.7322 16.5408 13.8236 16.7291 13.9578 16.8765L20.079 23.6204C20.6224 24.2169 21.3563 24.551 22.1206 24.55L28.2938 24.55C36.3253 24.55 42.3982 15.1437 37.9111 5.80615L37.9111 5.8103Z" fill="#FF3008" fill-opacity="1.000000" fill-rule="nonzero"/>
</svg>
