<svg width="151.833618" height="24.545410" viewBox="0 0 151.834 24.5454" fill="none" xmlns="http://www.w3.org/2000/svg" xmlns:xlink="http://www.w3.org/1999/xlink">
	<desc>
			Created with Pixso.
	</desc>
	<defs/>
	<path id="Vector" d="M0 24.1594L0 0L10.0514 0C14.376 0 17.1881 3.15088 17.1881 7.34155C17.1881 11.5322 14.376 14.691 10.0514 14.691L3.84412 14.691L3.84412 24.1437L0 24.1594ZM3.84412 3.26123L3.84412 11.4614L9.87805 11.4614C11.8 11.4614 13.344 9.50781 13.344 7.34155C13.344 5.17529 11.7686 3.26123 9.87805 3.26123L3.84412 3.26123ZM36.5819 19.0865C37.8186 18.8423 39.0238 18.6061 40.2212 18.4012C40.4653 19.7719 41.2845 21.4182 44.0652 21.4182C44.6875 21.4182 47.7361 21.1819 47.7361 18.9841C47.7361 14.8328 37.1018 19.118 37.1018 11.6741C37.1018 8.72009 40.0479 6.49084 43.7581 6.49084C47.4683 6.49084 50.6191 8.06628 51.139 11.9104C49.9022 12.123 48.697 12.3594 47.4998 12.6035C47.2555 10.4374 45.9243 9.64966 43.8605 9.64966C42.0408 9.64966 40.8041 10.6106 40.8041 11.6741C40.8041 13.0841 42.1117 13.4543 44.1676 13.667C48.1063 14.0767 51.4069 14.9352 51.4069 18.9841C51.4069 22.6234 48.256 24.5454 44.0652 24.5454C39.6067 24.5454 37.0624 22.1823 36.5819 19.0865ZM52.3757 9.63391L52.3757 6.7981L55.3612 6.7981L55.3612 1.75659L59.0714 1.75659L59.0714 6.76648L62.6713 6.76648L62.6713 9.63391L59.0714 9.63391L59.0714 19.4803C59.0714 20.8511 59.481 21.2686 60.6469 21.2686C61.1588 21.2686 62.2932 21.1976 62.2932 21.1976L62.2932 24.1831C62.2932 24.1831 60.9619 24.317 59.6464 24.317C56.3853 24.317 55.3218 22.5682 55.3218 19.244L55.3218 9.63391L52.3757 9.63391ZM75.582 14.4862C75.582 11.8395 74.9991 9.61023 72.2185 9.61023C69.5718 9.61023 68.8549 11.8395 68.8549 14.4862L68.8549 24.1594L65.1447 24.1594L65.1447 6.82959L68.5083 6.82959L68.8549 8.71216C69.3669 7.75122 71.4308 6.48291 73.4552 6.48291C74.424 6.42615 75.3893 6.63989 76.2434 7.10034C77.0977 7.56079 77.8069 8.24988 78.2919 9.09033C79.2213 7.51489 81.4427 6.48291 83.5066 6.48291C88.2329 6.48291 89.6823 9.36597 89.6823 14.5177L89.6823 24.1909L86.0272 24.1909L86.0272 14.4862C86.0272 11.871 85.3104 9.57874 82.6637 9.57874C79.8831 9.57874 79.3002 11.808 79.3002 14.4862L79.3002 24.1594L75.5978 24.1594L75.582 14.4862ZM96.4094 12.7848C95.2122 12.58 93.9753 12.3042 92.7386 12.0995C93.1168 8.25537 96.2755 6.46716 99.9148 6.46716C104.822 6.46716 107.359 8.83032 107.359 13.604L107.359 19.6459C107.359 20.6777 107.564 21.2606 108.288 21.2606C108.59 21.2562 108.89 21.2085 109.178 21.1189L109.178 24.1437C108.462 24.3379 107.723 24.4307 106.981 24.4194C106.258 24.4657 105.545 24.2362 104.985 23.7771C104.425 23.318 104.06 22.6636 103.964 21.9459C103.298 22.739 102.469 23.3795 101.534 23.824C100.599 24.2684 99.5795 24.5065 98.5442 24.5219C94.5267 24.5219 92.1243 22.2847 92.1243 19.0078C92.1243 16.298 94.6292 13.8246 99.2137 13.8246L103.68 13.8246L103.68 12.7848C103.68 11.4456 103.129 9.63391 99.9385 9.63391C97.8116 9.63391 96.504 10.6973 96.4331 12.7848L96.4094 12.7848ZM103.68 17.4481L103.68 16.5895L99.5919 16.5895C96.5433 16.5895 95.921 18.1649 95.921 18.9921C95.921 20.1578 96.7089 21.3552 98.9774 21.3552C101.994 21.3552 103.704 19.2992 103.704 17.4165L103.68 17.4481ZM26.2155 24.5376C24.4285 24.5376 22.6815 24.0077 21.1958 23.0149C19.71 22.0221 18.5519 20.611 17.868 18.96C17.1842 17.3091 17.0052 15.4923 17.3539 13.7397C17.7025 11.9871 18.563 10.3772 19.8265 9.11353C21.0902 7.84998 22.7001 6.98938 24.4528 6.64087C26.2054 6.29224 28.0221 6.47107 29.6731 7.15491C31.324 7.83887 32.7351 8.99683 33.7279 10.4827C34.7207 11.9685 35.2506 13.7153 35.2506 15.5023C35.2485 17.8981 34.2959 20.1949 32.6019 21.8889C30.908 23.5829 28.6111 24.5355 26.2155 24.5376ZM26.2155 9.91748C25.1089 9.91748 24.0273 10.2456 23.1074 10.8606C22.1875 11.4755 21.4707 12.3494 21.0476 13.3718C20.6245 14.3942 20.5142 15.5192 20.7306 16.6042C20.947 17.6893 21.4806 18.6859 22.2635 19.4678C23.0465 20.2496 24.0437 20.7817 25.1292 20.9966C26.2146 21.2115 27.3394 21.0996 28.3612 20.675C29.3831 20.2506 30.256 19.5325 30.8695 18.6117C31.4832 17.6909 31.8098 16.6089 31.8082 15.5023C31.8062 14.0204 31.2161 12.5999 30.1674 11.5527C29.1188 10.5056 27.6974 9.91748 26.2155 9.91748ZM132.243 18.1255C133.377 18.4327 134.504 18.7715 135.638 19.118C134.85 21.623 132.487 24.5061 127.761 24.5061C123.035 24.5061 119.592 20.8352 119.592 15.4788C119.592 10.1222 122.743 6.45142 127.588 6.45142C132.432 6.45142 135.417 9.68115 135.417 14.9274C135.428 15.4797 135.404 16.0321 135.347 16.5815L123.421 16.5815C123.491 19.118 125.24 21.3788 127.745 21.3788C128.748 21.407 129.733 21.1034 130.546 20.5153C131.359 19.9271 131.956 19.087 132.243 18.1255ZM131.455 13.8009C131.353 11.2251 130.116 9.57874 127.572 9.57874C125.027 9.57874 123.696 11.6346 123.594 13.8009L131.455 13.8009ZM137.009 19.0865C138.245 18.8502 139.451 18.6061 140.648 18.4012C140.892 19.7719 141.711 21.4182 144.492 21.4182C145.107 21.4182 148.163 21.1819 148.163 18.9841C148.163 14.8328 137.529 19.1259 137.529 11.6741C137.529 8.72803 140.475 6.49084 144.185 6.49084C147.895 6.49084 151.046 8.06628 151.558 11.9182C150.329 12.123 149.124 12.3594 147.927 12.6035C147.682 10.4374 146.351 9.64966 144.287 9.64966C142.468 9.64966 141.231 10.6106 141.231 11.6741C141.231 13.0841 142.539 13.4622 144.594 13.667C148.533 14.0767 151.834 14.9352 151.834 18.9841C151.834 22.6234 148.683 24.5454 144.492 24.5454C140.034 24.5454 137.489 22.1823 137.009 19.0865ZM108.627 9.63391L108.627 6.7981L111.613 6.7981L111.613 1.75659L115.323 1.75659L115.323 6.76648L118.923 6.76648L118.923 9.63391L115.323 9.63391L115.323 19.4803C115.323 20.8511 115.732 21.2686 116.938 21.2686C117.45 21.2686 118.584 21.1976 118.584 21.1976L118.584 24.1831C118.584 24.1831 117.26 24.317 115.937 24.317C112.684 24.317 111.613 22.5682 111.613 19.244L111.613 9.63391L108.627 9.63391Z" fill="#000000" fill-opacity="1.000000" fill-rule="nonzero"/>
</svg>
