<svg width="117.095703" height="24.545410" viewBox="0 0 117.096 24.5454" fill="none" xmlns="http://www.w3.org/2000/svg" xmlns:xlink="http://www.w3.org/1999/xlink">
	<desc>
			Created with Pixso.
	</desc>
	<defs/>
	<path id="Vector" d="M98.7877 0.346436L94.6874 0.346436C94.4562 0.346436 94.3408 0.462036 94.3408 0.692993L94.3408 16.9218C94.3408 17.7303 94.0809 18.3365 93.7343 18.7988C93.3879 19.261 92.9259 19.3763 92.3481 19.3763C91.7708 19.3763 91.2798 19.1451 90.9332 18.7988C90.5868 18.3365 90.3558 17.7303 90.3558 16.9218L90.3558 0.692993C90.3558 0.462036 90.1246 0.346436 90.0092 0.346436L85.8798 0.346436C85.6487 0.346436 85.5333 0.462036 85.5333 0.692993L85.5333 17.0374C85.5333 19.1453 85.9954 21.1378 87.2947 22.4371C88.5653 23.7367 90.3269 24.4298 92.348 24.4298C94.4561 24.4298 96.2177 23.7368 97.4015 22.4371C98.6722 21.1669 99.1631 19.2898 99.1631 17.0374L99.1631 0.692993C99.2786 0.577637 99.0476 0.346436 98.7877 0.346436ZM114.526 11.8685C115.219 11.1753 116.518 9.52942 116.518 7.39258C116.518 4.9093 115.565 3.40759 114.844 2.57007C113.544 1.18396 111.811 0.462036 109.79 0.462036L103.322 0.462036C103.062 0.462036 102.946 0.692993 102.946 0.808472L102.946 23.7367C102.946 23.9677 103.177 24.0834 103.322 24.0834L110.165 24.0834C112.273 24.0834 114.266 23.2748 115.565 21.5999C116.258 20.6758 117.096 19.1162 117.096 16.7775C116.865 13.9764 115.132 12.3304 114.526 11.8685ZM107.711 5.16882L109.819 5.16882C110.396 5.16882 110.858 5.28418 111.205 5.74646C111.58 6.1217 111.696 6.69934 111.696 7.42126C111.696 8.14307 111.58 8.69165 111.205 9.18286C110.858 9.5293 110.396 9.76025 109.934 9.76025L107.826 9.76025L107.826 5.16882L107.711 5.16882ZM111.465 18.6832C111.118 19.1453 110.656 19.2609 109.934 19.2609L107.595 19.2609L107.595 14.2938L109.934 14.2938C110.512 14.2938 110.974 14.5537 111.32 14.9005C111.696 15.3624 111.927 15.9399 111.927 16.6619C112.042 17.6147 111.84 18.1924 111.465 18.6832ZM27.8374 13.8608C28.2994 13.5144 28.6748 13.2833 29.0214 12.7924C29.8298 11.8684 30.8982 10.2222 30.8982 7.62341C30.8982 5.13989 29.9453 3.52295 29.0214 2.57007C27.8374 1.18396 26.0758 0.462036 24.0834 0.346436L17.2684 0.346436C17.0374 0.346436 16.9219 0.577637 16.9219 0.692993L16.9219 23.5925C16.9219 23.8235 17.153 23.939 17.2684 23.939L21.3689 23.939C21.5999 23.939 21.7155 23.7079 21.7155 23.5925L21.7155 15.1315L23.1305 15.1315L25.7004 23.8235C25.7004 23.939 25.9603 24.0544 26.0759 24.0544L30.4073 24.0544C30.5228 24.0544 30.6384 23.939 30.7539 23.939C30.8694 23.939 30.8694 23.7079 30.8694 23.5925L27.8374 13.8608ZM25.2384 9.61572C24.8918 10.0781 24.3143 10.3376 23.5924 10.3376L21.5999 10.3376L21.5999 5.16882L23.5924 5.16882C24.2854 5.16882 24.8629 5.3999 25.2384 5.86182C25.7003 6.35303 25.8447 6.93042 25.8447 7.73901C25.8447 8.57642 25.7292 9.15369 25.2384 9.61572ZM62.5762 11.8685C63.2982 11.1753 64.5688 9.52942 64.5688 7.39258C64.5688 4.9093 63.6448 3.40759 62.9229 2.57007C61.6234 1.18396 59.8617 0.462036 57.8694 0.462036L51.4297 0.462036C51.1987 0.462036 51.0831 0.692993 51.0831 0.808472L51.0831 23.7367C51.0831 23.9677 51.3143 24.0834 51.4297 24.0834L58.2448 24.0834C60.3528 24.0834 62.3453 23.2748 63.6735 21.5999C64.3667 20.6758 65.2041 19.1162 65.2041 16.7775C65.0598 13.9764 63.2982 12.3304 62.5762 11.8685ZM55.79 5.16882L57.8982 5.16882C58.4757 5.16882 58.9379 5.28418 59.2843 5.74646C59.6307 6.1217 59.7465 6.69934 59.7465 7.42126C59.7465 8.14307 59.6307 8.69165 59.2843 9.18286C58.9377 9.5293 58.4757 9.76025 58.0137 9.76025L55.9055 9.76025L55.9055 5.16882L55.79 5.16882ZM59.6597 18.6832C59.3132 19.1453 58.851 19.2609 58.1292 19.2609L55.79 19.2609L55.79 14.2938L58.1292 14.2938C58.7067 14.2938 59.1687 14.5537 59.5153 14.9005C59.8617 15.3624 60.1216 15.9399 60.1216 16.6619C60.1505 17.6147 60.0352 18.1924 59.6597 18.6832ZM6.78613 0C4.67798 0 2.91663 0.692993 1.73267 1.99231C0.462036 3.29187 0 5.13989 0 7.39246L0 17.1526C0 19.261 0.462036 21.2532 1.73267 22.5529C3.0321 23.8524 4.79358 24.5454 6.78613 24.5454C8.89404 24.5454 10.6844 23.8525 11.8683 22.5529C13.139 21.2821 13.601 19.4052 13.601 17.1526L13.601 11.7815C13.601 11.5219 13.37 11.2909 13.139 11.2909L7.1615 11.2909C6.90173 11.2909 6.67065 11.5219 6.67065 11.7815L6.67065 15.7667C6.67065 15.9976 6.90173 16.2288 7.1615 16.2288L8.69202 16.2288L8.69202 17.1816C8.69202 17.9902 8.46094 18.7122 8.1145 19.1743C7.76782 19.6364 7.2771 19.7517 6.69946 19.7517C6.12207 19.7517 5.65991 19.5208 5.28455 19.1743C4.93811 18.7122 4.70715 17.9904 4.70715 17.1816L4.70715 7.53699C4.70715 6.69934 4.93811 5.97742 5.28455 5.54407C5.66003 5.08215 6.12207 4.96667 6.69946 4.96667C7.2771 4.96667 7.76794 5.19775 8.1145 5.54407C8.46106 6.00623 8.69202 6.69934 8.69202 7.53699L8.69202 8.46094C8.69202 8.69177 8.92297 8.83618 9.03857 8.83618L13.1392 8.83618C13.37 8.83618 13.4856 8.69177 13.4856 8.46094L13.4856 7.53699C13.4856 5.42871 13.0237 3.43628 11.7242 2.13684C10.6844 0.692993 8.77856 0 6.78613 0ZM46.9828 0.346436L42.8822 0.346436C42.6511 0.346436 42.5356 0.462036 42.5356 0.692993L42.5356 16.9218C42.5356 17.7303 42.2759 18.3365 41.9293 18.7988C41.5828 19.261 41.1206 19.3763 40.5432 19.3763C39.9657 19.3763 39.4747 19.1451 39.1283 18.7988C38.7817 18.3365 38.5508 17.7303 38.5508 16.9218L38.5508 0.692993C38.5508 0.462036 38.2909 0.346436 38.1754 0.346436L34.075 0.346436C33.8439 0.346436 33.7284 0.462036 33.7284 0.692993L33.7284 17.0374C33.7284 19.1453 34.2192 21.1378 35.4897 22.4371C36.7892 23.7367 38.5508 24.4298 40.5432 24.4298C42.6514 24.4298 44.4417 23.7368 45.5967 22.4371C46.8961 21.1669 47.3582 19.2898 47.3582 17.0374L47.3582 0.692993C47.3293 0.577637 47.2137 0.346436 46.9828 0.346436ZM81.5194 0.346436L77.4189 0.346436C77.188 0.346436 77.0725 0.577637 77.0725 0.692993L77.0725 9.61572L72.972 9.61572L72.972 0.692993C72.972 0.462036 72.741 0.346436 72.6254 0.346436L68.5249 0.346436C68.2938 0.346436 68.1785 0.577637 68.1785 0.692993L68.1785 23.5925C68.1785 23.8235 68.4094 23.939 68.5249 23.939L72.6254 23.939C72.8563 23.939 72.972 23.7079 72.972 23.5925L72.972 14.4385L77.0725 14.4385L77.0725 23.5925C77.0725 23.8235 77.3036 23.939 77.4189 23.939L81.5194 23.939C81.7505 23.939 81.8661 23.7079 81.8661 23.5925L81.8661 0.692993C81.8661 0.577637 81.7505 0.346436 81.5194 0.346436Z" fill="#F63440" fill-opacity="1.000000" fill-rule="nonzero"/>
</svg>
